HIERARCHY
ROOT hip
{
  OFFSET 0 0 0
  CHANNELS 6 Xposition Yposition Zposition Zrotation Yrotation Xrotation
  JOINT abdomen
  {
    OFFSET 0 20.6881 -0.73152
    CHANNELS 3 Zrotation Xrotation Yrotation
    JOINT chest
    {
      OFFSET 0 11.7043 -0.48768
      CHANNELS 3 Zrotation Xrotation Yrotation
      JOINT neck
      {
        OFFSET 0 22.1894 -2.19456
        CHANNELS 3 Zrotation Xrotation Yrotation
        JOINT head
        {
          OFFSET -0.24384 7.07133 1.2192
          CHANNELS 3 Zrotation Xrotation Yrotation
          JOINT leftEye
          {
            OFFSET 4.14528 8.04674 8.04672
            CHANNELS 3 Zrotation Xrotation Yrotation
            End Site
            {
              OFFSET 1 0 0
            }
          }
          JOINT rightEye
          {
            OFFSET -3.6576 8.04674 8.04672
            CHANNELS 3 Zrotation Xrotation Yrotation
            End Site
            {
              OFFSET 1 0 0
            }
          }
        }
      }
      JOINT rCollar
      {
        OFFSET -2.68224 19.2634 -4.8768
        CHANNELS 3 Zrotation Xrotation Yrotation
        JOINT rShldr
        {
          OFFSET -8.77824 -1.95073 1.46304
          CHANNELS 3 Zrotation Xrotation Yrotation
          JOINT rForeArm
          {
            OFFSET -28.1742 -1.7115 0.48768
            CHANNELS 3 Zrotation Xrotation Yrotation
            JOINT rHand
            {
              OFFSET -22.5879 0.773209 7.07136
              CHANNELS 3 Zrotation Xrotation Yrotation
              JOINT rThumb1
              {
                OFFSET -1.2192 -0.487915 3.41376
                CHANNELS 3 Zrotation Xrotation Yrotation
                JOINT rThumb2
                {
                  OFFSET -3.37035 -0.52449 3.41376
                  CHANNELS 3 Zrotation Xrotation Yrotation
                  End Site
                  {
                    OFFSET -1.78271 -1.18214 1.43049
                  }
                }
              }
              JOINT rIndex1
              {
                OFFSET -7.75947 0.938293 5.60832
                CHANNELS 3 Zrotation Xrotation Yrotation
                JOINT rIndex2
                {
                  OFFSET -2.54057 -0.884171 1.56538
                  CHANNELS 3 Zrotation Xrotation Yrotation
                  End Site
                  {
                    OFFSET -1.62519 -0.234802 1.16502
                  }
                }
              }
              JOINT rMid1
              {
                OFFSET -8.24714 1.18213 3.41376
                CHANNELS 3 Zrotation Xrotation Yrotation
                JOINT rMid2
                {
                  OFFSET -3.10165 -0.590103 1.0647
                  CHANNELS 3 Zrotation Xrotation Yrotation
                  End Site
                  {
                    OFFSET -2.48547 -0.328903 0.83742
                  }
                }
              }
              JOINT rRing1
              {
                OFFSET -8.82822 0.546677 1.51678
                CHANNELS 3 Zrotation Xrotation Yrotation
                JOINT rRing2
                {
                  OFFSET -2.60934 -0.819778 -0.0198488
                  CHANNELS 3 Zrotation Xrotation Yrotation
                  End Site
                  {
                    OFFSET -2.33842 -0.294052 0.168128
                  }
                }
              }
              JOINT rPinky1
              {
                OFFSET -8.27202 -0.0477905 -0.4584
                CHANNELS 3 Zrotation Xrotation Yrotation
                JOINT rPinky2
                {
                  OFFSET -1.82734 -0.647385 -0.700984
                  CHANNELS 3 Zrotation Xrotation Yrotation
                  End Site
                  {
                    OFFSET -1.69225 -0.51767 -0.607171
                  }
                }
              }
            }
          }
        }
      }
      JOINT lCollar
      {
        OFFSET 2.68224 19.2634 -4.8768
        CHANNELS 3 Zrotation Xrotation Yrotation
        JOINT lShldr
        {
          OFFSET 8.77824 -1.95073 1.46304
          CHANNELS 3 Zrotation Xrotation Yrotation
          JOINT lForeArm
          {
            OFFSET 28.1742 -1.7115 0.48768
            CHANNELS 3 Zrotation Xrotation Yrotation
            JOINT lHand
            {
              OFFSET 22.5879 0.773209 7.07136
              CHANNELS 3 Zrotation Xrotation Yrotation
              JOINT lThumb1
              {
                OFFSET 1.2192 -0.487915 3.41376
                CHANNELS 3 Zrotation Xrotation Yrotation
                JOINT lThumb2
                {
                  OFFSET 3.37035 -0.52449 3.41376
                  CHANNELS 3 Zrotation Xrotation Yrotation
                  End Site
                  {
                    OFFSET 1.78271 -1.18214 1.43049
                  }
                }
              }
              JOINT lIndex1
              {
                OFFSET 7.75947 0.938293 5.60832
                CHANNELS 3 Zrotation Xrotation Yrotation
                JOINT lIndex2
                {
                  OFFSET 2.54057 -0.884171 1.56538
                  CHANNELS 3 Zrotation Xrotation Yrotation
                  End Site
                  {
                    OFFSET 1.62519 -0.234802 1.16502
                  }
                }
              }
              JOINT lMid1
              {
                OFFSET 8.24714 1.18213 3.41376
                CHANNELS 3 Zrotation Xrotation Yrotation
                JOINT lMid2
                {
                  OFFSET 3.10165 -0.590103 1.0647
                  CHANNELS 3 Zrotation Xrotation Yrotation
                  End Site
                  {
                    OFFSET 2.48547 -0.328903 0.83742
                  }
                }
              }
              JOINT lRing1
              {
                OFFSET 8.82822 0.546677 1.51678
                CHANNELS 3 Zrotation Xrotation Yrotation
                JOINT lRing2
                {
                  OFFSET 2.60934 -0.819778 -0.0198488
                  CHANNELS 3 Zrotation Xrotation Yrotation
                  End Site
                  {
                    OFFSET 2.33842 -0.294052 0.168128
                  }
                }
              }
              JOINT lPinky1
              {
                OFFSET 8.27202 -0.0477905 -0.4584
                CHANNELS 3 Zrotation Xrotation Yrotation
                JOINT lPinky2
                {
                  OFFSET 1.82734 -0.647385 -0.700984
                  CHANNELS 3 Zrotation Xrotation Yrotation
                  End Site
                  {
                    OFFSET 1.69225 -0.51767 -0.607171
                  }
                }
              }
            }
          }
        }
      }
    }
  }
  JOINT rButtock
  {
    OFFSET -8.77824 4.35084 1.2192
    CHANNELS 3 Zrotation Xrotation Yrotation
    JOINT rThigh
    {
      OFFSET 0 -1.70687 -2.19456
      CHANNELS 3 Zrotation Xrotation Yrotation
      JOINT rShin
      {
        OFFSET 0 -36.8199 0.73152
        CHANNELS 3 Zrotation Xrotation Yrotation
        JOINT rFoot
        {
          OFFSET 0.73152 -45.1104 -5.12064
          CHANNELS 3 Zrotation Xrotation Yrotation
          End Site
          {
            OFFSET -1.1221 -3.69964 12.103
          }
        }
      }
    }
  }
  JOINT lButtock
  {
    OFFSET 8.77824 4.35084 1.2192
    CHANNELS 3 Zrotation Xrotation Yrotation
    JOINT lThigh
    {
      OFFSET 0 -1.70687 -2.19456
      CHANNELS 3 Zrotation Xrotation Yrotation
      JOINT lShin
      {
        OFFSET 0 -36.8199 0.73152
        CHANNELS 3 Zrotation Xrotation Yrotation
        JOINT lFoot
        {
          OFFSET -0.73152 -45.1104 -5.12064
          CHANNELS 3 Zrotation Xrotation Yrotation
          End Site
          {
            OFFSET 1.1221 -3.69964 12.103
          }
        }
      }
    }
  }
}
MOTION
Frames:	8
Frame Time:	0.03333
60.8815 57.1473 -85.3702 5.132755 -3.306151 -1.476137 -7.885973 16.49026 1.934706 7.044141 -6.338734 -1.3781 -8.752756 20.922328 -24.864947 22.110028 -29.59269 -0.969562 -0.002694 -0.0 0.005813 -0.003284 -0.0 0.001223 -155.417526 -2.951539 161.718164 76.497232 46.788623 -70.323034 -31.301942 72.245141 64.19174 -3.816596 22.310016 1.509586 -169.290511 -6.971528 89.921168 -115.61441 12.540531 53.002764 -28.90132 31.616196 21.33778 100.638642 -62.770507 50.046018 173.123693 -66.297727 137.615614 -83.384007 64.071472 75.175018 -145.098175 -1.605293 -178.624234 7.877565 -21.555308 -12.221999 -124.85161 -29.03763 -122.62027 17.009242 42.641688 6.415052 9.650812 34.836469 -11.198061 100.641465 -32.189512 -171.69591 -2.988781 -15.545627 136.774184 148.973622 26.047387 -131.457815 -83.253605 -50.259205 -33.615826 14.919819 -41.128514 29.960012 26.600925 30.073151 -19.413539 66.158539 49.040997 -47.82958 6.647194 17.108673 -4.32618 163.193827 -4.721759 -143.338638 31.711079 -66.108568 46.284476 -13.019161 29.791971 -0.901924 -12.98825 44.344258 -10.76252 148.194306 11.867125 143.396928 3.4e-05 -0.000173 5.2e-05 -27.720794 -53.675927 -23.272349 -8.871711 40.423211 74.821247 -111.552771 27.87254 64.220268 -179.999902 75.749815 -0.000101 -160.908773 61.361961 158.478067 4.816325 -80.009504 51.949121 95.483068 -6.167351 166.923009
63.4386 58.160199999999996 -88.8542 5.839842 -6.156685 -2.160201 -7.99445 12.565303 -147.155507 -4.391371 4.835658 146.177224 -8.632191 20.824855 -24.839786 22.668585 -29.072647 2.44445 0.003729 -0.0 -0.003523 -0.002018 -0.0 0.000346 -142.973903 39.431613 147.389985 45.41339 64.945764 -75.712045 -167.988851 66.140824 -152.700274 -6.779116 27.26688 1.470972 -169.319646 -7.000792 89.922386 7.867303 -56.73693 13.002943 -19.171175 24.11434 13.380937 2.480302 8.659468 0.713705 -12.842561 28.997105 9.150132 -4.627424 20.812575 4.284547 -145.100217 -1.521044 -178.650031 -156.133427 63.717183 172.349922 -41.391385 -46.840771 -40.213116 -137.784264 -11.559153 -135.920894 149.957001 22.247619 -155.034849 28.11263 -17.792445 -57.088234 28.101894 60.712415 108.958929 158.057342 11.12872 -139.857226 174.123291 -11.788282 -89.87398 -130.925228 -57.196683 -94.344364 173.761277 -52.873051 -119.825979 -11.702528 5.937171 8.0912 -6.532795 -20.414969 2.718313 -144.590217 -74.655701 -112.897022 114.668363 66.731819 -135.092796 154.190456 62.911246 -165.319698 157.329498 57.246148 150.513028 148.246675 11.564627 141.993553 -0.000772 -0.000307 -0.001158 -21.235531 -53.026256 -141.675998 -26.906715 -28.005805 -122.434757 -0.149772 -19.323035 -111.056915 0.007922 0.001296 0.007922 6.280042 -12.138734 -128.436199 -77.508962 -35.034748 -68.042691 103.886093 28.599319 160.943662
66.3339 58.69220000000001 -93.02470000000001 5.317748 -9.634862 -1.255708 -9.467098 17.157536 0.0 7.674249 -6.894381 -0.718352 2.481802 37.120816 168.021637 -8.873323 52.154107 170.451909 0.002699 0.0 0.000872 0.002699 0.0 0.000872 0.023433 -0.138632 -0.030713 -93.13739 21.861987 96.777858 -156.001349 -48.242929 -127.446002 -2.438557 11.839489 0.475183 3.024263 -3.00694 -0.387439 -127.233195 -19.821564 114.04815 167.117853 -67.039267 108.167365 -168.870512 -35.860321 115.256212 5.894272 -18.351778 -2.544003 -176.52766 -42.234339 142.896406 -0.014473 -1.323113 -0.416134 -55.441332 -86.718838 -77.065542 -85.784336 -50.535475 -84.15463 32.638126 74.720086 2.79127 155.459957 -3.227598 -161.778154 -129.03757 0.631122 -148.928115 106.082223 -33.569747 -77.933105 171.864901 -35.625101 -153.495444 149.676364 11.79733 -86.059258 -24.850508 -51.309999 -26.978647 -73.419787 -73.571404 -26.563746 -17.38202 -1.051469 5.97143 160.098497 -4.900934 -142.969521 172.306205 -31.362106 -143.655555 -0.005109 1.770413 -0.556422 -6.771368 29.707193 -4.674214 77.071394 -51.586083 75.52981 159.911434 55.883883 148.487527 -0.000151 -0.000928 0.000194 -17.872719 -55.601483 -161.353999 0.056929 -32.088962 118.547613 -148.180259 -59.606531 -18.801321 -0.000261 0.000684 -0.000131 3.721193 -13.101944 -33.394255 -63.536624 50.68238 -47.023816 60.957645 -7.820091 149.335663
69.58670000000001 58.645199999999996 -97.5163 4.659896 -14.584953 -0.049099 -10.935007 17.735568 32.384288 3.222206 -10.914091 -31.67005 8.833387 24.528621 85.764992 -42.480946 6.24856 -105.505813 -0.001445 0.0 -1.8e-05 -0.001445 0.0 -1.8e-05 -155.513044 -3.574891 161.851702 103.75329 46.982324 -93.506336 108.557102 -49.285186 39.403681 -179.479876 15.946386 145.565601 -89.135507 38.426625 50.299582 -146.235121 -27.783159 80.275111 88.793034 -75.497763 40.050085 -32.417117 48.631225 25.611719 6.533515 -20.414826 -2.718989 -5.030806 21.306387 4.423211 -0.005587 3.47389 1.091521 -155.695322 -1.099395 171.9848 -152.197332 37.329668 -147.585285 -156.546058 38.5404 -146.27629 159.221215 -48.028498 -170.414954 -131.891118 8.17611 168.435574 8.951742 -0.94382 -104.099949 9.13386 -43.450936 10.17272 0.491048 0.484916 -0.077268 -10.740978 -15.221732 7.988784 166.008795 -42.776173 -122.224166 10.991807 37.319966 -4.420037 0.569685 1.64853 -0.322678 5.983542 23.535658 -5.104887 69.013051 72.941296 -86.719322 -5.68614 14.971806 2.486277 157.332102 57.246571 150.509825 7.210135 -18.598557 9.069458 -0.0 0.000197 0.001022 -18.564605 -59.751562 -16.363642 -11.974623 35.845267 -41.497406 52.449416 22.458821 17.25389 -0.0 0.000197 0.001022 1.026752 -19.911127 172.128076 14.496061 -68.468938 -176.694108 117.229259 24.884929 -24.709125
73.041 58.1823 -102.53699999999999 5.069261 -21.461505 0.281466 -10.030518 15.66395 -129.876592 1.027527 6.78485 133.431528 7.901189 31.214537 129.245168 -39.157432 35.508567 -135.875601 -0.000227 -0.0 0.00103 -0.000227 -0.0 0.00103 -159.219877 -48.028377 170.415944 62.788996 19.020131 -33.132651 110.882479 -64.179042 30.881347 175.870167 -0.276301 145.289823 0.968268 -0.957539 -0.140968 -6.271892 7.010878 4.69187 -46.207419 39.654024 36.317531 6.729468 0.009596 -2.548144 -0.057888 0.167866 0.031759 -163.528846 -5.556276 143.43182 -74.839957 72.962937 92.827226 -81.207308 83.254694 90.135696 -145.17551 12.067174 -141.822989 16.930217 43.79456 6.044576 -4.12262 -55.411405 11.083342 -123.477677 38.110685 96.247489 -3.677749 -4.210709 -104.482385 11.533208 -26.719092 6.969226 -116.308559 -50.008688 -56.953368 37.343709 -0.585313 8.538144 7.260926 10.780792 -4.546148 -31.421958 -29.079231 -0.671348 89.835634 60.70054 -81.262257 17.938809 42.232216 -14.668121 -0.00535 1.771244 -0.557401 156.259579 -13.739428 -173.48358 3.093797 -7.484932 2.882524 5.098135 -17.941472 6.886382 0.074194 0.000891 0.055646 -22.433838 -67.23595 -180.0 -48.755854 -50.456402 -89.87085 70.182396 30.498651 -168.348722 -179.997732 75.750767 -0.00234 178.195806 50.492991 -180.0 -21.533624 -77.509803 -121.908044 -55.84491 17.989073 -31.846506
76.21480000000001 57.546699999999994 -108.2356 6.145252 -28.289914 0.674364 -12.508026 17.141825 -102.71018 6.290872 4.634432 111.10992 8.347971 29.840811 123.224307 -42.032341 31.008749 -128.339325 0.003208 0.0 0.001605 -0.00278 0.0 -0.001213 -159.221491 -48.380733 170.492218 -95.384683 -30.727022 -138.905778 -113.515709 -52.569572 -83.205986 3.765246 -12.934891 0.608241 175.879628 -21.257292 88.493142 -4.347377 -58.219347 -1.104617 -46.209526 39.651945 36.318872 1.535269 7.763932 -1.096293 89.035652 -81.392707 59.760992 -175.556917 -39.334619 143.092958 -145.107595 3.757118 179.68805 11.71471 33.48354 -5.189197 -125.809393 -27.877147 -123.550644 -146.56326 11.054084 -141.868243 44.917963 -86.287873 66.526242 -101.56494 40.7104 112.793276 -174.247339 -20.41665 -37.035875 156.001284 24.472005 -133.47062 93.743678 37.963195 -53.548394 3.199298 -17.17877 -26.64454 43.648408 38.804008 -34.059415 170.833731 -20.892913 -111.55573 -5.892513 -18.352043 2.544605 4.784948 20.788542 -4.264843 0.000374 -0.018737 0.004344 -11.44244 -23.5764 2.840857 124.851171 -29.038184 122.621132 137.773445 -11.002379 134.965203 -179.982981 75.749561 -0.014003 173.521487 4.875048 78.885358 80.802772 8.885307 -166.201978 -44.287902 -68.156705 51.463783 -179.982981 75.749561 -0.014003 177.415811 45.638276 1.81225 -2.393692 81.954839 108.896694 59.411766 -84.663667 -27.744949
78.9988 57.027499999999996 -114.06190000000001 5.036787 -32.443925 3.17863 -15.803042 19.242896 4.693875 4.075383 -10.706887 8.107035 9.072352 27.302849 109.454315 -45.359651 20.618708 -116.329603 0.00315 -0.0 -0.002154 0.00315 -0.0 -0.002154 -147.86618 28.560302 152.690869 126.34352 32.208004 -137.938827 26.362738 41.963271 33.21122 -15.576364 37.661496 3.7239 2.01692 -2.000172 -0.275136 4.555658 -6.967624 -5.132113 -1.162481 1.860725 0.668975 -79.64411 48.074723 61.986445 7.431762 -23.301225 -2.923072 11.292781 -24.949529 -1.54446 1e-06 -0.060884 -0.018874 3.155896 45.211458 8.977544 17.318322 60.659958 12.796824 -76.73098 -54.29629 -75.466317 159.217806 -47.298686 -170.256359 -136.161281 -6.053953 165.278009 -174.407955 15.71939 -43.844763 160.259382 20.862485 -135.795819 -11.109727 -11.092286 0.639954 -2.361823 -9.063876 10.086557 143.836354 -3.680041 -117.921674 63.119321 57.029258 -45.681001 36.035291 51.723248 -29.832419 3.877 19.214482 -3.902472 145.121677 1.974187 179.749374 148.224241 -43.205281 170.550484 25.534085 -38.088531 24.597893 -21.736012 61.247675 -8.944194 -0.003631 -0.000725 -0.003631 -5.02261 -66.784267 -4.657059 150.735592 82.490185 140.267302 108.009975 31.347109 -13.184972 0.000485 0.001018 -0.000623 0.645781 -41.414307 -180.0 72.910603 -71.966243 149.822976 47.1442 0.400507 136.581039
81.1046 57.3121 -119.5153 2.982217 -33.341362 6.146429 -14.129166 18.078162 -0.0 4.076981 -10.067491 13.608364 -2.201029 15.410415 9.427229 -1.069414 -37.471704 -25.330779 -0.001087 -0.0 0.00017 -0.001087 -0.0 0.00017 -155.446053 -3.13455 161.757558 -71.558859 -32.086948 -82.773994 -175.465224 -49.772505 -129.496712 -7.639119 13.187654 -0.686462 -165.647763 -3.321355 89.684959 -17.036801 -40.167236 7.693006 -19.16993 24.115084 13.379939 8.307044 0.503025 -0.932882 -167.375086 -28.00851 145.26915 -18.992809 42.8461 15.410549 -70.381025 -72.130305 -87.279875 -57.874838 -82.318361 -83.779584 -150.580394 31.034408 -146.361239 -161.395298 52.674886 -146.881812 142.973061 39.431642 -147.390257 91.095611 15.977824 -70.847101 -5.292929 -5.125483 134.286868 168.965685 6.978221 -140.794604 -114.538661 -50.24569 -55.722244 58.377872 24.232265 -13.075972 83.731705 42.330156 -69.99044 160.31578 -3.270517 -113.928445 153.321909 13.62917 -138.862414 -2.888953 1.179064 -0.50562 -0.004771 1.771458 -0.556016 154.377585 12.771525 -170.103978 -1.135228 3.040495 -1.043604 152.30293 29.146008 147.210101 -179.999108 75.749829 -0.00092 179.02547 18.671791 -180.0 -168.748034 -69.866523 -78.842 92.605382 52.686358 2.968461 -0.000816 -0.000187 -0.000408 5.43057 -50.011493 -180.0 78.744404 -68.486326 157.275569 72.916032 -18.73116 151.509732
